<svg xmlns="http://www.w3.org/2000/svg" xmlns:xlink="http://www.w3.org/1999/xlink" width="18" height="18" viewBox="0 0 18 18">
  <defs>
    <clipPath id="clip-path">
      <rect id="사각형_599" data-name="사각형 599" width="18" height="18" transform="translate(260 466)" fill="#fff" stroke="#707070" stroke-width="1"/>
    </clipPath>
  </defs>
  <g id="icon_calendar" transform="translate(-260 -466)" clip-path="url(#clip-path)">
    <g id="그룹_243" data-name="그룹 243">
      <g id="사각형_600" data-name="사각형 600" transform="translate(261 468)" fill="none" stroke="#000" stroke-width="1">
        <path d="M0,0H16a0,0,0,0,1,0,0V11a3,3,0,0,1-3,3H3a3,3,0,0,1-3-3V0A0,0,0,0,1,0,0Z" stroke="none"/>
        <path d="M1,.5H15a.5.5,0,0,1,.5.5V11A2.5,2.5,0,0,1,13,13.5H3A2.5,2.5,0,0,1,.5,11V1A.5.5,0,0,1,1,.5Z" fill="none"/>
      </g>
      <rect id="사각형_603" data-name="사각형 603" width="16" height="1" transform="translate(261 472)"/>
      <rect id="사각형_601" data-name="사각형 601" width="1" height="5" transform="translate(264 466)"/>
      <rect id="사각형_602" data-name="사각형 602" width="1" height="5" transform="translate(273 466)"/>
    </g>
  </g>
</svg>
