<svg xmlns="http://www.w3.org/2000/svg" width="210" height="40" viewBox="0 0 104 18">
    <defs>
        <clipPath id="8jbmrkq9pa">
            <path data-name="사각형 65" transform="translate(20 19)" style="fill:#fff;stroke:#707070" d="M0 0h104v18H0z"/>
        </clipPath>
    </defs>
    <g transform="translate(-20 -19)" style="clip-path:url(#8jbmrkq9pa)">
        <path data-name="패스 14" d="M209.021 9.537a8.435 8.435 0 0 1 .318-2.412 4.822 4.822 0 0 0-4.018 4.887 4.911 4.911 0 0 0 5.17 5c.2 0 .4-.01.591-.029a6.514 6.514 0 0 0-.941-3.173 8.058 8.058 0 0 1-1.12-4.269" transform="translate(-91.758 16.122)" style="fill:#f1658a"/>
        <path data-name="패스 15" d="M221.826 11.9a4.874 4.874 0 0 0-4.749-4.981 6.43 6.43 0 0 0-.43 2.506 6.562 6.562 0 0 0 .951 3.588 8.02 8.02 0 0 1 1.094 3.522 4.809 4.809 0 0 0 3.134-4.636" transform="translate(-97.923 16.234)" style="fill:#f1658a"/>
        <path data-name="패스 16" d="M35.787 7.149v9.365h-2.494l-.277-.662a4.436 4.436 0 0 1-2.826.979 4.774 4.774 0 0 1-4.91-5 4.752 4.752 0 0 1 4.91-4.965 4.443 4.443 0 0 1 2.862 1.006l.33-.724zm-3.068 4.69a2.1 2.1 0 1 0-4.193 0 2.1 2.1 0 1 0 4.193 0" transform="translate(6.239 16.262)" style="fill:#f1658a"/>
        <path data-name="패스 17" d="M60.358 10.832v5.71h-3.225v-5.264c0-1.09-.41-1.63-1.221-1.63-1.006 0-1.585.7-1.585 1.894v5H51.1V7.178h2.263l.443.965A3.9 3.9 0 0 1 56.755 6.9c2.175 0 3.6 1.545 3.6 3.931" transform="translate(-7.815 16.244)" style="fill:#f1658a"/>
        <path data-name="패스 18" d="M84.211 7.149v9.365h-2.494l-.276-.662a4.436 4.436 0 0 1-2.826.979 4.775 4.775 0 0 1-4.911-5 4.752 4.752 0 0 1 4.911-4.965 4.443 4.443 0 0 1 2.861 1.006l.33-.724zm-3.068 4.69a2.1 2.1 0 1 0-4.193 0 2.1 2.1 0 1 0 4.193 0" transform="translate(-20.118 16.262)" style="fill:#f1658a"/>
        <path data-name="패스 19" d="M131 7.41v2.952h-1.252c-1.142 0-1.62.5-1.62 1.7v4.758H124.9V7.455h2.161l.5 1.039a3.126 3.126 0 0 1 2.58-1.084z" transform="translate(-47.987 15.967)" style="fill:#f1658a"/>
        <path data-name="패스 20" d="M150.768 11.735a5.935 5.935 0 0 1-.067.854h-6.953a1.819 1.819 0 0 0 1.911 1.63 1.882 1.882 0 0 0 1.694-.879h3.209a5.134 5.134 0 0 1-9.99-1.524 5.1 5.1 0 0 1 10.2-.082zM143.8 10.8h3.786a1.882 1.882 0 0 0-1.931-1.441A1.813 1.813 0 0 0 143.8 10.8" transform="translate(-56.515 16.28)" style="fill:#f1658a"/>
        <path data-name="패스 21" d="M169.107 16.813c-2.552 0-4.1-1.348-4.134-3.377h3.105a.965.965 0 0 0 1.089 1c.472 0 .919-.24.919-.725 0-.54-.709-.694-1.609-.843-1.452-.235-3.377-.674-3.377-2.945 0-1.877 1.6-3.089 4-3.089 2.385 0 3.93 1.269 3.967 3.166h-3.021c0-.6-.4-.876-.987-.876-.517 0-.864.256-.864.69 0 .533.716.657 1.605.816 1.48.263 3.446.57 3.446 2.945 0 1.957-1.651 3.238-4.14 3.238z" transform="translate(-69.796 16.28)" style="fill:#f1658a"/>
        <path data-name="패스 22" d="M189.312 16.813c-2.552 0-4.1-1.348-4.134-3.377h3.105a.965.965 0 0 0 1.089 1c.472 0 .919-.24.919-.725 0-.54-.709-.694-1.609-.843-1.452-.235-3.377-.674-3.377-2.945 0-1.877 1.6-3.089 4-3.089 2.385 0 3.93 1.269 3.967 3.166h-3.022c0-.6-.4-.876-.987-.876-.517 0-.864.256-.864.69 0 .533.716.657 1.605.816 1.48.263 3.446.57 3.446 2.945 0 1.957-1.651 3.238-4.14 3.238z" transform="translate(-80.794 16.28)" style="fill:#f1658a"/>
        <path data-name="패스 23" d="M10.388 7.348a4.91 4.91 0 0 0-4.818-4.23h-.346a5.642 5.642 0 0 0-2.064.405V0H0v8.221a5.119 5.119 0 0 0 5.234 4.866c.135 0 .257 0 .389-.005a4.9 4.9 0 0 0 4.71-3.94 4.8 4.8 0 0 0 .052-1.8m-3.52.478a1.365 1.365 0 0 1-1.389-1.406 1.392 1.392 0 1 1 2.783 0 1.368 1.368 0 0 1-1.391 1.412" transform="translate(20 20)" style="fill:#f1658a"/>
        <path data-name="패스 24" d="M109.908 10.861a4.952 4.952 0 0 0-4.758-3.98 5.44 5.44 0 0 0-.405-.016 5.168 5.168 0 0 0-5.274 4.926v8.3h3.192v-3.554a5.474 5.474 0 0 0 2.085.409h.115c.078 0 .156.006.235.006a4.96 4.96 0 0 0 4.866-4.273 4.857 4.857 0 0 0-.052-1.816M104.8 14.09a2.059 2.059 0 0 1-2.1-2.136 2.1 2.1 0 1 1 4.192 0 2.059 2.059 0 0 1-2.1 2.136" transform="translate(-34.141 16.263)" style="fill:#f1658a"/>
        <path data-name="사각형 20" transform="translate(20 20)" style="fill:none" d="M0 0h103.903v16.363H0z"/>
    </g>
</svg>
